<?xml version="1.0" encoding="UTF-8"?>
<svg id="Layer_1" xmlns="http://www.w3.org/2000/svg" version="1.1" viewBox="0 0 540 359">
  <!-- Generator: Adobe Illustrator 29.0.0, SVG Export Plug-In . SVG Version: 2.1.0 Build 186)  -->
  <defs>
    <style>
      .st0 {
        fill: #2a6d41;
      }

      .st1 {
        fill: #67945b;
      }
    </style>
  </defs>
  <path class="st1" d="M537.8,191.83c-6.39-9.58-17.6-7.16-33.59-4.86-10.3,26.62-26.73,55.27-49.57,81.37,57.52-18.56,95.06-58.66,83.16-76.51Z"/>
  <g>
    <path class="st1" d="M362.23,163.85c14.14-1.92,26.36-5.15,37.1-9.19-32.07-30.17-27.8-64.21-78.71-120.99-61.38-68.46-110.95-11.8-110.95-11.8-20.11,17.87-29.37,52.77-20.93,92.53,73.91,25.36,94.19,60.24,173.48,49.45Z"/>
    <path class="st1" d="M504.21,186.97c18.91-48.86,17.22-90.87-3.2-97.74-28.33-9.52-39.28,41.96-101.69,65.43,6.6,6.2,14.69,12.25,25.16,18.29,33.69,19.44,60.26,16.82,79.72,14.02Z"/>
    <path class="st1" d="M292.29,248.49c-62.81-39.54-94.15-89.83-103.55-134.09-15.86-5.44-34.19-10.45-56.11-14.47C8.58,77.17,2.35,180.24,2.35,180.24c-14.4,76.64,87.49,195.15,279.86,176.52,76.83-7.44,133.81-44.29,172.43-88.43-46.29,14.94-105.51,15.94-162.35-19.85Z"/>
    <path class="st0" d="M504.21,186.97c-19.47,2.8-46.03,5.41-79.72-14.02-10.47-6.04-18.57-12.08-25.16-18.29-10.74,4.04-22.96,7.27-37.1,9.19-79.29,10.78-99.57-24.09-173.48-49.45,9.4,44.26,40.74,94.55,103.55,134.09,56.84,35.79,116.06,34.79,162.35,19.85,22.84-26.1,39.27-54.75,49.57-81.37Z"/>
  </g>
</svg>