<?xml version="1.0" encoding="utf-8"?>
<!-- Generator: Adobe Illustrator 24.3.0, SVG Export Plug-In . SVG Version: 6.00 Build 0)  -->
<svg version="1.1" id="Camada_1" xmlns="http://www.w3.org/2000/svg" xmlns:xlink="http://www.w3.org/1999/xlink" x="0px" y="0px"
	 viewBox="0 0 224.7 164.2" style="enable-background:new 0 0 224.7 164.2;" xml:space="preserve">
<style type="text/css">
	.st0{fill:#ED6D05;}
	.st1{fill:#FFFFFF;}
	.st2{fill:#E94E1B;}
</style>
<path class="st0" d="M219.8,55.4L182,14.7c-4.5-4.8-12.6-1.7-12.6,4.9v20.7c0,0-84.9-17.5-84.4,118.5c12.7-85.8,84.4-66.5,84.4-66.5
	v24.3c0,7.6,9.3,11.2,14.4,5.6l36-42C226.3,73.2,226.3,62.4,219.8,55.4z"/>
<path class="st0" d="M95.1,164.2h64.6v-60.9C99.2,103.3,95.1,164.2,95.1,164.2z"/>
<rect x="0" y="0" class="st1" width="73.1" height="73.1"/>
<path class="st1" d="M91.5,74c8.2-33.1,44.9-44.6,68.1-45.5V0H86.6v73.1l0.1,0.9H91.5z"/>
<rect x="0" y="90.1" class="st0" width="73.1" height="73.1"/>
<path class="st2" d="M169.4,116.6V92.3c0,0-71.7-19.3-84.4,66.5c-0.5-136,84.4-118.5,84.4-118.5V19.7c0-6.6,8.1-9.8,12.6-4.9
	l37.8,40.7c6.5,7,6.5,17.8,0.1,24.8l-36,42C178.8,127.8,169.4,124.2,169.4,116.6z"/>
<path class="st1" d="M95.1,164.2c0,0,4.1-60.9,64.6-60.9v60.9H95.1z"/>
<rect class="st1" width="73.1" height="73.1"/>
<path class="st1" d="M86.6,0v73.1l0.1,0.9h4.8c8.2-33.1,44.9-44.6,68.1-45.5V0H86.6z"/>
<rect y="90.1" class="st1" width="73.1" height="73.1"/>
</svg>
