<?xml version="1.0" encoding="utf-8"?>
<!-- Generator: Adobe Illustrator 24.3.0, SVG Export Plug-In . SVG Version: 6.00 Build 0)  -->
<svg version="1.1" id="Camada_1" xmlns="http://www.w3.org/2000/svg" xmlns:xlink="http://www.w3.org/1999/xlink" x="0px" y="0px"
	 viewBox="0 0 480.9 123.2" style="enable-background:new 0 0 480.9 123.2;" xml:space="preserve">
<style type="text/css">
	.st0{fill:#706F6F;}
	.st1{fill:#FFFFFF;}
	.st2{fill:#878787;}
	.st3{fill:#ED6D05;}
	.st4{fill:#E94E1B;}
</style>
<path class="st0" d="M474.5,39.5l-20.1-21.7c-2.7-2.9-6.3-4.8-10.2-5.5c-2.5-4.1-7-6.9-12.1-6.9h-38.9c-1.2,0-2.4,0.2-3.6,0.5
	c-1.1-0.3-2.4-0.5-3.6-0.5h-38.9c-4.5,0-8.5,2.1-11.1,5.3c-5.3-2.8-11.6-4.3-18.8-4.3c-10.7,0-19.6,3.5-25.9,9.7
	c-6-5.5-14.6-8.4-25.4-8.4h-21.4c-3.9,0-7.4,1.6-10,4.1c-5.2-2.7-11.4-4.1-18.5-4.1h-22c-2.2,0-4.3,0.5-6.1,1.4
	c-2-1-4.2-1.6-6.6-1.6h-5.8c-3.7,0-7,1.4-9.5,3.7c-2.5-2.3-5.8-3.7-9.5-3.7h-5.8c-3.7,0-7,1.4-9.5,3.7c-2.5-2.3-5.8-3.7-9.5-3.7
	h-5.8c-1.1,0-2.2,0.1-3.2,0.4c-3.4-1.1-7.6-1.5-10.1-1.5c-13.4,0-27.6,7.8-29.7,29.2c-3.8,1.1-6.9,3.8-8.7,7.3l-8.4-21.9
	c-2.1-5.5-7.4-9.1-13.2-9.1h-7.4c-5.9,0-11.3,3.7-13.3,9.3l-29.8,81c-1.6,4.3-1,9.2,1.7,13c2.7,3.8,7,6.1,11.6,6.1H22
	c5.9,0,11.3-3.7,13.3-9.3l6.9-18.7h14.5l7.1,18.8c2.1,5.5,7.4,9.2,13.3,9.2h6.8c2.3,0,4.6-0.6,6.6-1.6c2,1,4.2,1.6,6.6,1.6h5.8
	c4.8,0,9.1-2.4,11.6-6.1c2.6,3.7,6.8,6.1,11.6,6.1h5.8c3.7,0,7-1.4,9.5-3.7c2.5,2.3,5.8,3.7,9.5,3.7h5.8c3.7,0,7-1.4,9.5-3.7
	c2.5,2.3,5.8,3.7,9.5,3.7h5.8c2,0,3.9-0.4,5.6-1.2c2.1,1.2,4.5,1.9,7.1,1.9h16.5c7.8,0,14.2-6.3,14.2-14.2V87.3
	c2-0.4,3.9-0.9,5.7-1.6v22c0,7.8,6.3,14.2,14.2,14.2h16.5c1.8,0,3.6-0.3,5.2-1c1.6,0.6,3.4,1,5.2,1h16c3.5,0,6.8-1.3,9.4-3.6
	c5.4,3.2,12,4.9,19.7,4.9c8.6,0,16-2,21.8-5.7c2.4,1.9,5.5,3.1,8.8,3.1h38.9c1.9,0,3.6-0.4,5.2-1c2,1,4.2,1.6,6.5,1.6h34.3
	c7.8,0,14.2-6.3,14.2-14.2v-7.3c3.5-0.9,6.7-2.8,9.2-5.5c0.1-0.1,0.2-0.2,0.3-0.3l19-22.2C483.1,62.4,483,48.7,474.5,39.5z"/>
<g>
	<path class="st1" d="M473.5,34.5l-20.1-21.7c-2.7-2.9-6.3-4.8-10.2-5.5c-2.5-4.1-7-6.9-12.1-6.9h-38.9c-1.2,0-2.4,0.2-3.6,0.5
		c-1.1-0.3-2.4-0.5-3.6-0.5h-38.9c-4.5,0-8.5,2.1-11.1,5.3c-5.3-2.8-11.6-4.3-18.8-4.3c-10.7,0-19.6,3.5-25.9,9.7
		c-6-5.5-14.6-8.4-25.4-8.4h-21.4c-3.9,0-7.4,1.6-10,4.1c-5.2-2.7-11.4-4.1-18.5-4.1h-22c-2.2,0-4.3,0.5-6.1,1.4
		c-2-1-4.2-1.6-6.6-1.6h-5.8c-3.7,0-7,1.4-9.5,3.7c-2.5-2.3-5.8-3.7-9.5-3.7h-5.8c-3.7,0-7,1.4-9.5,3.7c-2.5-2.3-5.8-3.7-9.5-3.7
		h-5.8c-1.1,0-2.2,0.1-3.2,0.4c-3.4-1.1-7.6-1.5-10.1-1.5c-13.4,0-27.6,7.8-29.7,29.2c-3.8,1.1-6.9,3.8-8.7,7.3l-8.4-21.9
		c-2.1-5.5-7.4-9.1-13.2-9.1h-7.4c-5.9,0-11.3,3.7-13.3,9.3l-29.8,81c-1.6,4.3-1,9.2,1.7,13c2.7,3.8,7,6.1,11.6,6.1H21
		c5.9,0,11.3-3.7,13.3-9.3l6.9-18.7h14.5l7.1,18.8c2.1,5.5,7.4,9.2,13.3,9.2h6.8c2.3,0,4.6-0.6,6.6-1.6c2,1,4.2,1.6,6.6,1.6h5.8
		c4.8,0,9.1-2.4,11.6-6.1c2.6,3.7,6.8,6.1,11.6,6.1h5.8c3.7,0,7-1.4,9.5-3.7c2.5,2.3,5.8,3.7,9.5,3.7h5.8c3.7,0,7-1.4,9.5-3.7
		c2.5,2.3,5.8,3.7,9.5,3.7h5.8c2,0,3.9-0.4,5.6-1.2c2.1,1.2,4.5,1.9,7.1,1.9h16.5c7.8,0,14.2-6.3,14.2-14.2V82.3
		c2-0.4,3.9-0.9,5.7-1.6v22c0,7.8,6.3,14.2,14.2,14.2h16.5c1.8,0,3.6-0.3,5.2-1c1.6,0.6,3.4,1,5.2,1h16c3.5,0,6.8-1.3,9.4-3.6
		c5.4,3.2,12,4.9,19.7,4.9c8.6,0,16-2,21.8-5.7c2.4,1.9,5.5,3.1,8.8,3.1h38.9c1.9,0,3.6-0.4,5.2-1c2,1,4.2,1.6,6.5,1.6h34.3
		c7.8,0,14.2-6.3,14.2-14.2v-7.3c3.5-0.9,6.7-2.8,9.2-5.5c0.1-0.1,0.2-0.2,0.3-0.3l19-22.2C482.1,57.4,482,43.7,473.5,34.5z"/>
	<path class="st2" d="M315.6,118.7c-7.6,0-14.2-1.6-19.6-4.8c-2.7,2.3-6,3.5-9.5,3.5h-16c-1.8,0-3.5-0.3-5.2-0.9
		c-1.6,0.6-3.4,0.9-5.2,0.9h-16.5c-8.1,0-14.7-6.6-14.7-14.7V81.5c-1.5,0.5-3.1,0.9-4.7,1.3v20c0,8.1-6.6,14.7-14.7,14.7h-16.5
		c-2.5,0-4.9-0.6-7.1-1.8c-1.8,0.7-3.7,1.1-5.6,1.1h-5.8c-3.5,0-6.8-1.2-9.5-3.5c-2.7,2.3-6,3.5-9.5,3.5h-5.8
		c-3.5,0-6.8-1.2-9.5-3.5c-2.7,2.3-6,3.5-9.5,3.5h-5.8c-4.6,0-8.9-2.1-11.6-5.7c-2.8,3.6-7.1,5.7-11.6,5.7h-5.8
		c-2.3,0-4.6-0.5-6.6-1.6c-2,1-4.3,1.6-6.6,1.6H76c-6.1,0-11.6-3.8-13.7-9.5l-7-18.5H41.6l-6.8,18.4c-2.1,5.7-7.6,9.6-13.8,9.6h-6.4
		c-4.8,0-9.3-2.3-12-6.3c-2.7-3.9-3.4-9-1.7-13.5l29.8-81c2.1-5.8,7.6-9.6,13.8-9.6h7.4c6,0,11.5,3.8,13.7,9.4l8,20.9
		c1.8-3.1,4.7-5.4,8.1-6.5c1-9.9,4.6-17.5,10.7-22.6c5.1-4.3,12-6.7,19.4-6.7c2.5,0,6.7,0.4,10.2,1.5c1.1-0.2,2.1-0.4,3.2-0.4h5.8
		c3.5,0,6.8,1.2,9.5,3.5c2.7-2.3,6-3.5,9.5-3.5h5.8c3.5,0,6.8,1.2,9.5,3.5c2.7-2.3,6-3.5,9.5-3.5h5.8c2.3,0,4.6,0.5,6.6,1.6
		c1.9-0.9,4-1.3,6.1-1.3h22c7,0,13.2,1.4,18.4,4c2.7-2.6,6.3-4,10.1-4h21.4c10.6,0,19.1,2.8,25.4,8.2C297,4.3,305.9,1,316.4,1
		c7,0,13.3,1.4,18.7,4.2c2.8-3.3,6.9-5.2,11.2-5.2h38.9c1.2,0,2.4,0.2,3.6,0.5c1.2-0.3,2.4-0.5,3.6-0.5h38.9c5.1,0,9.7,2.6,12.4,6.9
		c3.9,0.7,7.5,2.7,10.2,5.6l20.1,21.7c8.6,9.3,8.7,23.4,0.3,32.9l-19,22.2c-0.1,0.1-0.2,0.2-0.3,0.3c-2.4,2.7-5.6,4.6-9.1,5.5v6.9
		c0,8.1-6.6,14.7-14.7,14.7h-34.3c-2.2,0-4.5-0.5-6.5-1.5c-1.7,0.6-3.4,1-5.2,1h-38.9c-3.2,0-6.3-1-8.9-3
		C331.4,116.8,324.1,118.7,315.6,118.7z M295.8,112.7l0.3,0.2c5.4,3.2,11.9,4.8,19.4,4.8c8.4,0,15.7-1.9,21.5-5.6l0.3-0.2l0.3,0.2
		c2.4,2,5.4,3,8.5,3h38.9c1.7,0,3.4-0.3,5.1-1l0.2-0.1l0.2,0.1c1.9,1,4.1,1.5,6.2,1.5h34.3c7.5,0,13.7-6.1,13.7-13.7v-7.7l0.4-0.1
		c3.5-0.9,6.6-2.7,9-5.4c0.1-0.1,0.2-0.2,0.3-0.3l19-22.2c8.1-9.1,8-22.6-0.3-31.5l-20.1-21.7c-2.6-2.8-6.1-4.7-9.9-5.3l-0.2,0
		l-0.1-0.2c-2.5-4.2-6.9-6.6-11.7-6.6h-38.9c-1.1,0-2.3,0.2-3.5,0.5l-0.1,0l-0.1,0c-1.2-0.3-2.3-0.5-3.5-0.5h-38.9
		c-4.2,0-8.1,1.9-10.7,5.1l-0.3,0.3l-0.4-0.2C329.6,3.4,323.4,2,316.4,2c-10.3,0-19.2,3.3-25.5,9.5l-0.3,0.3l-0.3-0.3
		c-6.1-5.5-14.5-8.3-25-8.3h-21.4c-3.6,0-7.1,1.4-9.7,4l-0.3,0.3l-0.3-0.2c-5.2-2.7-11.3-4.1-18.3-4.1h-22c-2,0-4,0.5-5.9,1.3
		l-0.2,0.1l-0.2-0.1c-2-1.1-4.1-1.6-6.4-1.6h-5.8c-3.4,0-6.6,1.3-9.2,3.5l-0.3,0.3l-0.3-0.3c-2.5-2.3-5.8-3.5-9.2-3.5h-5.8
		c-3.4,0-6.6,1.3-9.2,3.5l-0.3,0.3l-0.3-0.3c-2.5-2.3-5.8-3.5-9.2-3.5h-5.8c-1,0-2,0.1-3.1,0.4l-0.1,0l-0.1,0
		c-3.3-1.1-7.5-1.5-10-1.5c-6.2,0-26.6,2.1-29.2,28.7l0,0.3L82.3,31c-3.6,1.1-6.7,3.6-8.4,7l-0.5,1l-8.8-22.9
		c-2-5.3-7.1-8.8-12.8-8.8h-7.4c-5.7,0-10.9,3.6-12.8,9l-29.8,81c-1.5,4.2-0.9,8.9,1.6,12.5s6.7,5.8,11.2,5.8H21
		c5.7,0,10.9-3.6,12.8-9l7-19.1H56l7.2,19.2c2,5.3,7.1,8.9,12.8,8.9h6.8c2.2,0,4.4-0.5,6.4-1.6l0.2-0.1l0.2,0.1c2,1,4.1,1.6,6.4,1.6
		h5.8c4.5,0,8.7-2.2,11.2-5.9l0.4-0.6l0.4,0.6c2.6,3.7,6.8,5.9,11.2,5.9h5.8c3.4,0,6.6-1.3,9.2-3.5l0.3-0.3l0.3,0.3
		c2.5,2.3,5.8,3.5,9.2,3.5h5.8c3.4,0,6.6-1.3,9.2-3.5l0.3-0.3l0.3,0.3c2.5,2.3,5.8,3.5,9.2,3.5h5.8c1.9,0,3.7-0.4,5.4-1.1l0.2-0.1
		l0.2,0.1c2.1,1.2,4.4,1.8,6.8,1.8h16.5c7.5,0,13.7-6.1,13.7-13.7V81.9l0.4-0.1c1.9-0.4,3.8-0.9,5.6-1.6L230,80v22.7
		c0,7.5,6.1,13.7,13.7,13.7h16.5c1.7,0,3.4-0.3,5-0.9l0.2-0.1l0.2,0.1c1.6,0.6,3.3,0.9,5,0.9h16c3.3,0,6.6-1.2,9.1-3.5L295.8,112.7z
		"/>
</g>
<path class="st3" d="M463.1,44.2L443,22.5c-2.4-2.6-6.7-0.9-6.7,2.6v11c0,0-45.1-9.3-44.9,63c6.7-45.6,44.9-35.4,44.9-35.4v12.9
	c0,4,5,6,7.7,3l19.1-22.3C466.6,53.6,466.5,47.9,463.1,44.2z"/>
<path class="st3" d="M396.8,102h34.3V69.6C399,69.6,396.8,102,396.8,102z"/>
<rect x="346.2" y="14.7" class="st3" width="38.9" height="38.9"/>
<path class="st3" d="M394.9,54c4.3-17.6,23.9-23.7,36.2-24.2V14.7h-38.9v38.9l0,0.5H394.9z"/>
<rect x="346.2" y="62.6" class="st3" width="38.9" height="38.9"/>
<path class="st3" d="M44.4,21l-29.8,81H21l10.3-28h34.2L76,102h6.8l-31-81H44.4z M33.5,68.2C40.8,47.6,46,33.2,48,27.1h0.1
	c1.6,5.4,6.3,17,15.3,41.1H33.5z"/>
<path class="st3" d="M96.1,35.9v8.2h-10v5.4h10V102h5.8V49.6h12.6v-5.4h-12.6v-8c0-10.1,2.5-14.9,9.4-14.9c1.7,0,4.5,0.2,6.3,0.7
	v-5.6c-1.4-0.5-3.9-0.8-5.7-0.8C98.8,15.5,96.1,26.2,96.1,35.9z"/>
<rect x="125.1" y="44.1" class="st3" width="5.8" height="57.9"/>
<rect x="125.1" y="16.7" class="st3" width="5.8" height="11.2"/>
<rect x="149.9" y="16.7" class="st3" width="5.8" height="85.3"/>
<rect x="174.7" y="16.7" class="st3" width="5.8" height="11.2"/>
<rect x="174.7" y="44.1" class="st3" width="5.8" height="57.9"/>
<path class="st3" d="M215.2,16.9h-22v85.8h16.5V69h4.8c16.3,0,21.9-9.1,21.9-24.1v-5.2C236.5,24.5,229.4,16.9,215.2,16.9z M220,45
	c0,7.1-1.3,10.7-7.6,10.7h-2.7V29.9h3.5c5.5,0,6.8,3.6,6.8,9.1V45z"/>
<path class="st3" d="M265.1,16.9h-21.4v85.8h16.5V65.4h1.9c6.3,0,7.4,1.6,7.4,11.3c0,11-0.1,22.1,1,26h16c-0.7-4.5-0.6-17-0.6-25.3
	c0-12-2.5-15.9-7.8-18.5c3.7-1.7,8.6-5.4,8.6-17.6v-3.1C286.6,23.3,279.5,16.9,265.1,16.9z M270,42.7c0,8-2.2,9.7-7.8,9.7h-2V29.9
	h2.6c6.1,0,7.2,2.9,7.2,8.6V42.7z"/>
<path class="st4" d="M436.3,76.7V63.8c0,0-38.1-10.2-44.9,35.4c-0.3-72.3,44.9-63,44.9-63v-11c0-3.5,4.3-5.2,6.7-2.6l20.1,21.7
	c3.4,3.7,3.5,9.4,0.1,13.2L444,79.7C441.3,82.7,436.3,80.7,436.3,76.7z"/>
<path class="st0" d="M396.8,102c0,0,2.2-32.4,34.3-32.4V102H396.8z"/>
<rect x="346.2" y="14.7" class="st0" width="38.9" height="38.9"/>
<path class="st0" d="M392.3,14.7v38.9l0,0.5h2.6c4.3-17.6,23.9-23.7,36.2-24.2V14.7H392.3z"/>
<rect x="346.2" y="62.6" class="st0" width="38.9" height="38.9"/>
<path class="st0" d="M31.3,74L21,102h-6.4l29.8-81h7.4l31,81H76L65.5,74H31.3z M63.4,68.2c-9-24.1-13.7-35.7-15.3-41.1H48
	c-2,6.1-7.2,20.5-14.5,41.1H63.4z"/>
<path class="st0" d="M96.1,102V49.6h-10v-5.4h10v-8.2c0-9.7,2.8-20.4,15.7-20.4c1.7,0,4.3,0.3,5.7,0.8v5.6c-1.7-0.5-4.5-0.7-6.3-0.7
	c-6.8,0-9.4,4.9-9.4,14.9v8h12.6v5.4h-12.6V102H96.1z"/>
<path class="st0" d="M125.1,16.7h5.8v11.2h-5.8V16.7z M125.1,44.1h5.8V102h-5.8V44.1z"/>
<path class="st0" d="M149.9,102V16.7h5.8V102H149.9z"/>
<path class="st0" d="M174.7,16.7h5.8v11.2h-5.8V16.7z M174.7,44.1h5.8V102h-5.8V44.1z"/>
<g>
	<path class="st4" d="M193.2,16.9h22c14.2,0,21.3,7.5,21.3,22.7v5.2c0,15-5.7,24.1-21.9,24.1h-4.8v33.7h-16.5V16.9z M209.7,55.6h2.7
		c6.3,0,7.6-3.5,7.6-10.7v-5.9c0-5.5-1.3-9.1-6.8-9.1h-3.5V55.6z"/>
	<path class="st4" d="M260.2,65.4v37.3h-16.5V16.9h21.4c14.4,0,21.5,6.3,21.5,21.3v3.1c0,12.2-4.9,15.9-8.6,17.6
		c5.3,2.6,7.8,6.5,7.8,18.5c0,8.3-0.1,20.8,0.6,25.3h-16c-1.1-3.9-1-15-1-26c0-9.7-1.1-11.3-7.4-11.3H260.2z M260.2,52.4h2
		c5.5,0,7.8-1.7,7.8-9.7v-4.1c0-5.8-1.2-8.6-7.2-8.6h-2.6V52.4z"/>
	<path class="st4" d="M338.6,39.9v39.8c0,17-8,24.3-23,24.3c-14.2,0-21.6-7.5-21.6-24.2V39.5c0-16.6,9.1-23.8,22.3-23.8
		C329.7,15.7,338.6,22.8,338.6,39.9z M310.7,38v43.9c0,5.3,1.8,8.1,5.5,8.1c3.8,0,5.6-2.5,5.6-8.1V37.9c0-5.4-1.5-8.1-5.6-8.1
		C312.7,29.8,310.7,32.3,310.7,38z"/>
</g>
</svg>
