<?xml version="1.0" encoding="UTF-8"?>
<svg id="Layer_1" xmlns="http://www.w3.org/2000/svg" version="1.1" viewBox="0 0 965 191">
  <!-- Generator: Adobe Illustrator 29.0.0, SVG Export Plug-In . SVG Version: 2.1.0 Build 186)  -->
  <defs>
    <style>
      .st0 {
        fill: #e94e1b;
      }

      .st1 {
        fill: #4d4d4d;
      }

      .st2 {
        fill: #ed6d05;
      }

      .st3 {
        fill: #fff;
        stroke: #4d4d4d;
        stroke-miterlimit: 10;
      }
    </style>
  </defs>
  <path class="st1" d="M964.84,81.85c-.71-7.88-4.07-15.42-9.47-21.23l-33.18-35.72c-4.39-4.69-10.13-7.54-16.38-8.21-3.3-6.51-10.04-10.99-17.84-10.99h-63.95c-2.06,0-4.04.31-5.91.89-1.87-.58-3.85-.89-5.91-.89h-64.04c-11.05,0-20,8.95-20,20v5.52c-16.39-16.73-37.53-25.22-62.87-25.22-26.72,0-48.85,8.92-65.78,26.53-1.56,1.63-3.03,3.31-4.45,5.03-3.22-6.02-7.51-11.44-12.87-16.11-12.34-10.74-30.23-16.19-53.19-16.19h-51.98c-8.32,0-15.45,5.09-18.47,12.32-12.55-8.17-28.84-12.32-48.56-12.32h-50.66c-6.99,0-13.13,3.59-16.7,9.01-5.15-3.59-11.34-5.52-17.96-5.52-7.85,0-15.11,2.72-20.73,7.72-3.47-5.92-9.89-9.9-17.24-9.9h-15.61c-7.13,0-13.38,3.75-16.92,9.37-5.53-4.65-12.54-7.18-20.11-7.18-2.84,0-5.6.36-8.23,1.05-3.29-1.57-6.76-2.81-10.34-3.68-4.54-1.1-9.15-1.65-13.69-1.65-18.6,0-30.24,7.79-36.74,14.32-9.11,9.16-14.01,21.21-14.19,34.88-5.43.91-10.1,4.02-13.11,8.36l-16.92-43.95c-2.97-7.72-10.39-12.82-18.67-12.82h-17.67c-8.28,0-15.71,5.1-18.67,12.84L9.99,163.7c-2.36,6.15-1.54,13.07,2.19,18.49,3.73,5.43,9.9,8.67,16.48,8.67h18.99c8.45,0,15.99-5.31,18.83-13.26l9.17-25.62h35.15l9.83,25.97c2.94,7.78,10.39,12.92,18.7,12.92h18.88c2.18,0,4.31-.36,6.33-1.04,1.99.66,4.11,1.04,6.32,1.04h15.51c10.24,0,18.67-7.7,19.85-17.62,1.18,9.92,9.61,17.62,19.85,17.62h15.61c5.82,0,11.05-2.5,14.71-6.48,3.66,3.97,8.88,6.48,14.71,6.48h15.61c5.98,0,11.33-2.64,14.99-6.79,3.66,4.16,9.01,6.79,14.99,6.79h15.61c5.22,0,9.96-2.02,13.52-5.3,3.56,3.28,8.3,5.3,13.52,5.3h32.79c11.05,0,20-8.95,20-20v-27.53c17.57-.77,32.62-5.41,44.9-13.84v41.37c0,11.05,8.95,20,20,20h32.79c11.05,0,20-8.95,20-20v-10.6l11.1,20.22c3.51,6.4,10.23,10.38,17.53,10.38h36.85c7.12,0,13.69-3.78,17.28-9.93.79-1.36,1.4-2.78,1.84-4.25,13.93,8.83,30.21,13.32,48.64,13.32,26.09,0,47.88-8.8,64.77-26.15.11-.12.22-.24.33-.35v5.17c0,11.05,8.95,20,20,20h64.04c3.18,0,6.18-.76,8.85-2.08,3.11,1.9,6.71,2.96,10.42,2.96h56.59c11.05,0,20-8.95,20-20v-14.68c6.06-.9,11.59-3.81,15.86-8.42.18-.19.35-.38.52-.58l31.37-36.6c6.67-7.46,9.96-17.42,9.02-27.4ZM652.92,78.44c2.98-3.59,6.31-5.06,11.51-5.06,5.56,0,8.18,1.82,10.41,4.56,4.32,5.32,5.23,14.24,5.23,20.79,0,8.73-1.73,15.17-5.15,19.13-2.09,2.42-4.89,4.66-11.26,4.66-4.76,0-7.92-1.43-10.91-4.93-3.59-4.2-5.41-10.74-5.41-19.45s1.83-15.18,5.59-19.71Z"/>
  <path class="st3" d="M958.84,75.85c-.71-7.88-4.07-15.42-9.47-21.23l-33.18-35.72c-4.39-4.69-10.13-7.54-16.38-8.21-3.3-6.51-10.04-10.99-17.84-10.99h-63.95c-2.06,0-4.04.31-5.91.89-1.87-.58-3.85-.89-5.91-.89h-64.04c-11.05,0-20,8.95-20,20v5.52c-16.39-16.73-37.53-25.22-62.87-25.22-26.72,0-48.85,8.92-65.78,26.53-1.56,1.63-3.03,3.31-4.45,5.03-3.22-6.02-7.51-11.44-12.87-16.11-12.34-10.74-30.23-16.19-53.19-16.19h-51.98c-8.32,0-15.45,5.09-18.47,12.32-12.55-8.17-28.84-12.32-48.56-12.32h-50.66c-6.99,0-13.13,3.59-16.7,9.01-5.15-3.59-11.34-5.52-17.96-5.52-7.85,0-15.11,2.72-20.73,7.72-3.47-5.92-9.89-9.9-17.24-9.9h-15.61c-7.13,0-13.38,3.75-16.92,9.37-5.53-4.65-12.54-7.18-20.11-7.18-2.84,0-5.6.36-8.23,1.05-3.29-1.57-6.76-2.81-10.34-3.68-4.54-1.1-9.15-1.65-13.69-1.65-18.6,0-30.24,7.79-36.74,14.32-9.11,9.16-14.01,21.21-14.19,34.88-5.43.91-10.1,4.02-13.11,8.36l-16.92-43.95c-2.97-7.72-10.39-12.82-18.67-12.82h-17.67c-8.28,0-15.71,5.1-18.67,12.84L3.99,157.7c-2.36,6.15-1.54,13.07,2.19,18.49,3.73,5.43,9.9,8.67,16.48,8.67h18.99c8.45,0,15.99-5.31,18.83-13.26l9.17-25.62h35.15l9.83,25.97c2.94,7.78,10.39,12.92,18.7,12.92h18.88c2.18,0,4.31-.36,6.33-1.04,1.99.66,4.11,1.04,6.32,1.04h15.51c10.24,0,18.67-7.7,19.85-17.62,1.18,9.92,9.61,17.62,19.85,17.62h15.61c5.82,0,11.05-2.5,14.71-6.48,3.66,3.97,8.88,6.48,14.71,6.48h15.61c5.98,0,11.33-2.64,14.99-6.79,3.66,4.16,9.01,6.79,14.99,6.79h15.61c5.22,0,9.96-2.02,13.52-5.3,3.56,3.28,8.3,5.3,13.52,5.3h32.79c11.05,0,20-8.95,20-20v-27.53c17.57-.77,32.62-5.41,44.9-13.84v41.37c0,11.05,8.95,20,20,20h32.79c11.05,0,20-8.95,20-20v-10.6l11.1,20.22c3.51,6.4,10.23,10.38,17.53,10.38h36.85c7.12,0,13.69-3.78,17.28-9.93.79-1.36,1.4-2.78,1.84-4.25,13.93,8.83,30.21,13.32,48.64,13.32,26.09,0,47.88-8.8,64.77-26.15.11-.12.22-.24.33-.35v5.17c0,11.05,8.95,20,20,20h64.04c3.18,0,6.18-.76,8.85-2.08,3.11,1.9,6.71,2.96,10.42,2.96h56.59c11.05,0,20-8.95,20-20v-14.68c6.06-.9,11.59-3.81,15.86-8.42.18-.19.35-.38.52-.58l31.37-36.6c6.67-7.46,9.96-17.42,9.02-27.4ZM646.92,72.44c2.98-3.59,6.31-5.06,11.51-5.06,5.56,0,8.18,1.82,10.41,4.56,4.32,5.32,5.23,14.24,5.23,20.79,0,8.73-1.73,15.17-5.15,19.13-2.09,2.42-4.89,4.66-11.26,4.66-4.76,0-7.92-1.43-10.91-4.93-3.59-4.2-5.41-10.74-5.41-19.45s1.83-15.18,5.59-19.71Z"/>
  <g>
    <path class="st1" d="M22.66,164.86L78.51,19.26h17.67l56.04,145.59h-18.88l-14.72-38.89h-63.05l-13.91,38.89h-18.99ZM61.25,110.54h51.78l-23.56-63.35c-.47-1.29-.85-2.37-1.12-3.25-.27-.88-.64-2.1-1.12-3.66h-.41c-.54,1.56-.95,2.79-1.22,3.71-.27.91-.64,1.98-1.12,3.2l-23.25,63.35Z"/>
    <path class="st1" d="M206.08,34.65c-1.4-.82-2.94-1.52-4.62-2.09-1.68-.57-3.66-.86-5.95-.86-4.89,0-8.63,1.48-11.23,4.43-2.6,2.95-3.9,7.31-3.9,13.09v18.18h22.84v13.33h-22.84v84.14h-15.51v-84.14h-16.66v-13.33h16.66v-18.94c0-8.76,2.79-15.94,8.38-21.56,5.58-5.62,13.1-8.42,22.56-8.42,2.98,0,5.98.37,8.99,1.09,3.01.73,5.85,1.86,8.52,3.38l-7.23,11.71Z"/>
    <path class="st1" d="M228.06,45.41c-3.36,0-6.09-1.13-8.19-3.38-2.09-2.25-3.14-4.9-3.14-7.95s1.05-5.69,3.14-7.95c2.09-2.25,4.82-3.38,8.19-3.38s6.09,1.13,8.19,3.38c2.09,2.25,3.14,4.9,3.14,7.95s-1.05,5.7-3.14,7.95c-2.09,2.25-4.82,3.38-8.19,3.38ZM235.68,164.86h-15.61v-97.46h15.61v97.46Z"/>
    <path class="st1" d="M265.09,164.86V20.56h15.61v144.29h-15.61Z"/>
    <path class="st1" d="M318.67,45.41c-3.36,0-6.09-1.13-8.19-3.38-2.09-2.25-3.14-4.9-3.14-7.95s1.05-5.69,3.14-7.95c2.09-2.25,4.82-3.38,8.19-3.38s6.09,1.13,8.19,3.38c2.09,2.25,3.14,4.9,3.14,7.95s-1.05,5.7-3.14,7.95c-2.09,2.25-4.82,3.38-8.19,3.38ZM326.29,164.86h-15.61v-97.46h15.61v97.46Z"/>
    <path class="st0" d="M386.13,117.44v47.41h-32.79V19.26h50.66c18.14,0,31.96,3.96,41.47,11.88,9.51,7.92,14.26,19.63,14.26,35.13s-5.33,28.67-15.99,37.67c-10.66,9-24.96,13.5-42.9,13.5h-14.72ZM386.13,44.44v47.82h13.71c8.12,0,14.38-2.13,18.78-6.4,4.4-4.26,6.6-10.39,6.6-18.38,0-7.38-2.15-13.06-6.45-17.06-4.3-3.99-10.44-5.99-18.43-5.99h-14.21Z"/>
    <path class="st0" d="M589.31,164.86h-36.85l-21.63-39.39c-2.91-5.35-5.7-9.14-8.38-11.37-2.67-2.23-5.94-3.35-9.8-3.35h-8.83v54.12h-32.79V19.26h51.98c18.07,0,31.42,3.76,40.05,11.27s12.95,17.53,12.95,30.05c0,9.14-2.71,17.45-8.12,24.93-5.42,7.48-13,12.64-22.74,15.48v.41c3.72,1.49,7.21,3.98,10.46,7.46,3.25,3.49,6.67,8.34,10.25,14.57l23.45,41.42ZM503.82,44.24v41.32h14.21c7.51,0,13.3-1.98,17.36-5.94,4.06-3.96,6.09-9.22,6.09-15.79s-1.9-11.13-5.69-14.52c-3.79-3.38-9.51-5.08-17.16-5.08h-14.82Z"/>
    <path class="st0" d="M657.07,164c-20.07,0-36.54-6.49-49.42-19.47-12.88-12.98-19.32-29.89-19.32-50.73,0-22.01,6.54-39.81,19.61-53.41,13.08-13.59,30.2-20.39,51.37-20.39,20,0,36.3,6.51,48.89,19.52,12.59,13.01,18.89,30.17,18.89,51.46s-6.52,39.52-19.57,52.92c-13.04,13.4-29.86,20.1-50.44,20.1ZM657.65,136.52c10.94,0,19.74-3.87,26.41-11.6,6.67-7.74,10-18.46,10-32.19s-3.24-25.44-9.71-33.4c-6.47-7.96-15.12-11.94-25.93-11.94s-20.1,4.09-26.9,12.28c-6.8,8.19-10.2,19.02-10.2,32.48s3.4,24.47,10.2,32.43c6.8,7.96,15.5,11.94,26.12,11.94Z"/>
    <path class="st2" d="M934.72,68.23l-33.11-35.65c-3.94-4.2-11.04-1.49-11.04,4.29v18.13s-74.37-15.33-73.94,103.81c11.13-75.16,73.94-58.25,73.94-58.25v21.29c0,6.66,8.15,9.81,12.61,4.91l31.54-36.79c5.69-6.13,5.69-15.59,0-21.72Z"/>
    <path class="st2" d="M825.48,163.54h56.59v-53.35c-53,0-56.59,53.35-56.59,53.35Z"/>
    <rect class="st1" x="742.17" y="19.7" width="64.04" height="64.04"/>
    <path class="st1" d="M822.33,84.52c7.18-29,39.33-39.07,59.66-39.86v-24.97h-63.95v64.04l.09.79h4.2Z"/>
    <rect class="st2" x="742.17" y="98.63" width="64.04" height="64.04"/>
    <path class="st0" d="M890.57,121.84v-21.29s-62.81-16.91-73.94,58.25c-.44-119.14,73.94-103.81,73.94-103.81v-18.05c0-5.78,7.1-8.58,11.04-4.29l33.11,35.65c5.69,6.13,5.69,15.59.09,21.72l-31.54,36.79c-4.47,4.82-12.7,1.66-12.7-4.99Z"/>
    <path class="st1" d="M825.48,163.54s3.59-53.35,56.59-53.35v53.35h-56.59Z"/>
    <rect class="st1" x="742.17" y="19.7" width="64.04" height="64.04"/>
    <path class="st1" d="M818.03,19.7v64.04l.09.79h4.2c7.18-29,39.33-39.07,59.66-39.86v-24.97h-63.95Z"/>
    <rect class="st1" x="742.17" y="98.63" width="64.04" height="64.04"/>
  </g>
</svg>