<?xml version="1.0" encoding="UTF-8"?>
<svg id="Layer_2" xmlns="http://www.w3.org/2000/svg" version="1.1" viewBox="0 0 990 722">
  <!-- Generator: Adobe Illustrator 29.0.0, SVG Export Plug-In . SVG Version: 2.1.0 Build 186)  -->
  <defs>
    <style>
      .st0 {
        fill: #2a6d41;
      }

      .st1 {
        fill: #eb710e;
      }

      .st2 {
        fill: #277144;
      }

      .st3 {
        fill: #67945b;
      }
    </style>
  </defs>
  <path class="st3" d="M791.27,200.94c-6.66-10-18.36-7.47-35.04-5.07-10.75,27.77-27.88,57.65-51.71,84.88,60-19.36,99.16-61.19,86.75-79.81Z"/>
  <path class="st3" d="M608.12,171.75c14.75-2.01,27.5-5.38,38.7-9.59-33.45-31.47-29-66.98-82.1-126.21-64.03-71.41-115.74-12.31-115.74-12.31-20.98,18.64-30.64,55.05-21.83,96.52,77.1,26.46,98.26,62.84,180.97,51.59Z"/>
  <path class="st3" d="M756.24,195.87c19.73-50.97,17.96-94.8-3.33-101.96-29.55-9.93-40.98,43.77-106.08,68.25,6.88,6.47,15.33,12.78,26.25,19.08,35.15,20.28,62.86,17.55,83.16,14.63Z"/>
  <path class="st3" d="M535.17,260.04c-65.52-41.25-98.21-93.71-108.02-139.88-16.55-5.68-35.66-10.9-58.53-15.1-129.41-23.74-135.91,83.79-135.91,83.79-15.02,79.95,91.27,203.58,291.94,184.14,80.14-7.76,139.58-46.21,179.87-92.24-48.28,15.58-110.06,16.62-169.35-20.71Z"/>
  <g>
    <path class="st2" d="M170.99,477.13v.39h-5.41l-17.7-20.79h-10.83v20.79h-4.82v-50.07h16.28c4.08,0,7.58.58,10.51,1.74s5.17,2.81,6.72,4.95c1.55,2.14,2.33,4.65,2.33,7.53,0,2.52-.56,4.8-1.68,6.84-1.12,2.04-2.8,3.75-5.04,5.14s-5,2.32-8.27,2.78l17.92,20.71ZM137.04,453.09h11.34c4.92,0,8.63-1.01,11.12-3.01s3.73-4.71,3.73-8.11-1.24-6.05-3.73-7.96c-2.49-1.9-6.2-2.86-11.12-2.86h-11.34v21.94Z"/>
    <path class="st2" d="M211.05,473.8h28.34v3.71h-33.17v-50.07h32.74v3.71h-27.91v19.16h24.55l-.52,3.63h-24.04v19.86Z"/>
    <path class="st2" d="M282.29,476.93c-3.22-.95-6.2-2.36-8.96-4.21l2.33-3.09c2.53,1.7,5.27,2.97,8.23,3.79,2.96.82,5.84,1.24,8.66,1.24,4.82,0,8.41-.88,10.77-2.63,2.35-1.75,3.53-4.17,3.53-7.26,0-2.06-.55-3.75-1.64-5.06-1.09-1.31-2.56-2.41-4.39-3.28s-4.39-1.85-7.67-2.94l-1.64-.46c-3.56-1.19-6.42-2.29-8.57-3.32-2.15-1.03-3.92-2.38-5.3-4.06-1.38-1.67-2.07-3.77-2.07-6.3s.82-4.91,2.46-6.84c1.64-1.93,3.8-3.4,6.51-4.41,2.7-1,5.63-1.51,8.79-1.51s6.15.37,8.96,1.12c2.81.75,5.69,1.97,8.62,3.67l-2.33,3.09c-2.59-1.44-5.1-2.5-7.54-3.17-2.44-.67-5.07-1.01-7.88-1.01-2.07,0-4.08.31-6.03.93s-3.56,1.57-4.82,2.86c-1.26,1.29-1.9,2.94-1.9,4.94,0,1.7.42,3.12,1.25,4.25.83,1.14,2.12,2.14,3.88,3.01,1.75.88,4.21,1.83,7.37,2.86l1.64.54c3.67,1.19,6.63,2.29,8.87,3.32,2.24,1.03,4.18,2.5,5.81,4.41,1.64,1.9,2.46,4.35,2.46,7.34s-.75,5.27-2.24,7.3-3.68,3.59-6.55,4.67c-2.87,1.08-6.35,1.62-10.42,1.62-3.56,0-6.95-.48-10.17-1.43Z"/>
    <path class="st2" d="M350.18,477.51v-50.07h4.83v50.07h-4.83Z"/>
    <path class="st2" d="M433.1,433.54c4.8,4.07,7.19,10.38,7.19,18.93s-2.64,14.8-7.93,18.89c-5.28,4.1-12.87,6.14-22.74,6.14h-12.75v-50.07h14.9c9.42,0,16.53,2.04,21.32,6.11ZM423.24,471.95c3.79-1.24,6.78-3.41,8.96-6.53,2.18-3.12,3.27-7.43,3.27-12.94,0-7.11-1.88-12.44-5.64-15.99-3.76-3.55-9.64-5.33-17.62-5.33h-10.51v42.65h7.93c5.28,0,9.82-.62,13.61-1.86Z"/>
    <path class="st2" d="M483.02,473.8h28.34v3.71h-33.17v-50.07h32.74v3.71h-27.92v19.16h24.55l-.51,3.63h-24.04v19.86Z"/>
    <path class="st2" d="M593.38,427.44v50.07h-5.56l-29.52-39.1c-.23-.31-.73-.97-1.5-1.97-.77-1.01-1.44-2-2.01-2.98v44.05h-4.82v-50.07h5.22l29.35,38.64c.74.93,1.47,1.9,2.18,2.9.71,1.01,1.33,1.97,1.84,2.9v-44.43h4.82Z"/>
    <path class="st2" d="M642.71,475.12c-3.76-2.16-6.59-5.19-8.49-9.08-1.9-3.89-2.84-8.43-2.84-13.64,0-5.82,1.18-10.66,3.53-14.53,2.35-3.86,5.43-6.71,9.22-8.54,3.79-1.83,7.9-2.74,12.32-2.74,3.39,0,6.49.38,9.3,1.16,2.81.77,5.6,1.88,8.36,3.32l-2.16,3.25c-2.48-1.29-4.89-2.27-7.25-2.94-2.36-.67-5.1-1.01-8.2-1.01-4.37,0-8.09.93-11.14,2.78-3.05,1.85-5.34,4.43-6.86,7.73-1.53,3.3-2.29,7.08-2.29,11.36s.75,8.16,2.25,11.51c1.5,3.35,3.75,5.99,6.78,7.92s6.75,2.9,11.18,2.9c2.99,0,5.77-.36,8.33-1.08s5.14-1.72,7.73-3.01l1.99,3.17c-5.86,3.14-11.89,4.71-18.09,4.71-5.34,0-9.89-1.08-13.65-3.24Z"/>
    <path class="st2" d="M709.26,477.51v-50.07h4.82v50.07h-4.82Z"/>
    <path class="st2" d="M776.63,427.44l22.14,49.69v.39h-5l-6.89-15.69h-25.93l-6.81,15.69h-4.65v-.39l21.97-49.69h5.17ZM762.58,458.19h22.74l-11.37-26.12-11.37,26.12Z"/>
    <path class="st2" d="M838.91,473.73h28.34v3.79h-33.17v-50.07h4.82v46.29Z"/>
  </g>
  <path class="st2" d="M23.8,721.3v-164.34h18.56v164.34h-18.56ZM36.68,721.3v-18.2h42.6c12.66,0,21.64-2.54,26.93-7.63,5.29-5.08,7.94-11.77,7.94-20.06v-.34c0-8.89-2.29-15.97-6.87-21.25-4.58-5.27-12.12-7.91-22.64-7.91h-47.96v-17.86h47.96c9.08,0,15.93-2.21,20.55-6.61,4.61-4.41,6.92-10.91,6.92-19.5s-2.54-15.67-7.62-20.12c-5.08-4.44-12.7-6.67-22.85-6.67h-44.96v-18.2h48.6c15.38,0,26.82,4.03,34.33,12.09,7.51,8.06,11.27,18.88,11.27,32.44,0,8.06-2.27,15.54-6.81,22.44-4.54,6.89-11.75,11.28-21.62,13.17,9.66,1.51,17.15,5.99,22.48,13.45,5.33,7.46,7.99,16.01,7.99,25.66v.34c0,13.41-4.11,24.23-12.34,32.44-8.23,8.21-19.39,12.32-33.48,12.32h-50.43Z"/>
  <path class="st2" d="M204.97,723c-15.52,0-27.54-4.58-36.05-13.73-8.51-9.15-12.77-22.1-12.77-38.82v-13.22c0-17.48,4.09-31.01,12.29-40.58,8.19-9.57,19.72-14.35,34.6-14.35,14.02,0,24.87,5.07,32.56,15.2,7.69,10.14,11.53,24.4,11.53,42.78v10.51h-77.79v-16.5h60.19v-.57c-.29-10.62-2.74-18.86-7.35-24.7-4.61-5.84-11-8.76-19.15-8.76-9.3,0-16.51,3.11-21.62,9.33-5.12,6.21-7.67,15.01-7.67,26.39v14.92c0,10.78,2.72,19.07,8.15,24.87,5.43,5.8,13.12,8.7,23.07,8.7,4.79,0,9.55-1.03,14.27-3.11,4.72-2.07,8.91-4.99,12.55-8.76l12.45,12.89c-5.44,5.58-11.59,9.89-18.45,12.94-6.87,3.05-13.81,4.58-20.82,4.58Z"/>
  <path class="st2" d="M289.26,556.96v133.71c0,3.92.87,6.97,2.63,9.16,1.75,2.19,4.2,3.28,7.35,3.28h10.3v18.42h-12.87c-8.23,0-14.63-2.71-19.21-8.14-4.58-5.43-6.87-13.07-6.87-22.94v-133.48h18.67Z"/>
  <path class="st2" d="M353.68,556.96v133.71c0,3.92.87,6.97,2.63,9.16,1.75,2.19,4.2,3.28,7.35,3.28h10.3v18.42h-12.87c-8.23,0-14.63-2.71-19.21-8.14-4.58-5.43-6.87-13.07-6.87-22.94v-133.48h18.67Z"/>
  <path class="st2" d="M433.98,723c-13.3,0-23.46-3.07-30.47-9.21-7.01-6.14-10.51-15.16-10.51-27.07s3.22-20.02,9.66-25.94c6.44-5.92,15.74-8.87,27.9-8.87h34.33l1.5,16.84h-35.73c-6.44,0-11.34,1.53-14.7,4.58-3.36,3.05-5.04,7.52-5.04,13.39,0,6.33,2.16,11.12,6.49,14.35,4.33,3.24,10.64,4.86,18.94,4.86,8.94,0,15.77-.98,20.49-2.94,4.72-1.96,7.08-4.86,7.08-8.7l2.25,15.94c-2.08,2.86-4.69,5.24-7.83,7.12-3.15,1.89-6.76,3.3-10.84,4.24-4.08.94-8.58,1.41-13.52,1.41ZM463.91,721.3v-74.37c0-8.59-2.18-15.26-6.54-20.01-4.36-4.75-10.55-7.12-18.56-7.12-4.79,0-9.53.79-14.22,2.37-4.69,1.58-8.85,3.88-12.5,6.89l-13.63-9.83c4.22-5.35,9.78-9.51,16.68-12.49,6.9-2.98,14.57-4.47,23.01-4.47,13.95,0,24.75,3.81,32.4,11.42,7.65,7.61,11.48,18.35,11.48,32.21v75.39h-18.13Z"/>
  <path class="st1" d="M555.33,721.3l-52.47-164.34h20.07l41.2,135.07,41.2-135.07h20.06l-52.47,164.34h-17.6Z"/>
  <path class="st1" d="M648.18,576.63v-19.67h18.67v19.67h-18.67ZM648.18,721.3v-117.32h18.67v117.32h-18.67Z"/>
  <path class="st1" d="M733.97,723c-9.44,0-18.19-1.47-26.23-4.41-8.05-2.94-15.11-7.2-21.19-12.77l10.94-14.13c6.08,4.6,12.21,8.08,18.4,10.46,6.19,2.37,12.21,3.56,18.08,3.56,9.66,0,17.02-1.66,22.1-4.97,5.08-3.31,7.62-8.14,7.62-14.47,0-5.2-1.59-8.87-4.77-11.02-3.18-2.15-7.37-3.54-12.55-4.18-5.19-.64-10.75-1.19-16.68-1.64-4.51-.38-8.98-.96-13.41-1.75-4.44-.79-8.48-2.2-12.13-4.24s-6.56-5.01-8.74-8.93c-2.18-3.92-3.27-9.23-3.27-15.94,0-11.83,3.76-20.83,11.27-27.01,7.51-6.18,18.38-9.27,32.62-9.27,8.01,0,15.67,1.19,22.96,3.56,7.3,2.37,14.02,5.86,20.17,10.45l-11.05,14.02c-5.43-3.54-10.93-6.22-16.47-8.02s-10.86-2.71-15.93-2.71c-8.44,0-14.88,1.58-19.31,4.75-4.44,3.16-6.65,7.76-6.65,13.79,0,4.37,1.43,7.5,4.29,9.38,2.86,1.89,6.63,3.11,11.32,3.67,4.68.57,9.78,1.04,15.29,1.41,4.65.3,9.35.85,14.11,1.64,4.76.79,9.14,2.28,13.14,4.46,4.01,2.19,7.22,5.44,9.66,9.78,2.43,4.33,3.65,10.27,3.65,17.8,0,11.91-4.02,21.01-12.07,27.29-8.05,6.29-19.76,9.44-35.14,9.44Z"/>
  <path class="st1" d="M803.75,621.39v-17.41h50.22v17.41h-50.22ZM841.3,721.87c-9.16,0-15.79-2.67-19.9-8.02-4.11-5.35-6.17-13.03-6.17-23.06v-120.94h18.67v121.16c0,3.92.81,6.95,2.41,9.1,1.61,2.15,3.99,3.22,7.14,3.22h10.52v18.54h-12.66Z"/>
  <path class="st1" d="M922.88,723c-13.3,0-23.46-3.07-30.47-9.21-7.01-6.14-10.51-15.16-10.51-27.07s3.22-20.02,9.66-25.94,15.73-8.87,27.9-8.87h34.34l1.5,16.84h-35.73c-6.44,0-11.34,1.53-14.7,4.58-3.36,3.05-5.04,7.52-5.04,13.39,0,6.33,2.16,11.12,6.49,14.35,4.33,3.24,10.64,4.86,18.94,4.86,8.94,0,15.77-.98,20.49-2.94,4.72-1.96,7.08-4.86,7.08-8.7l2.25,15.94c-2.08,2.86-4.69,5.24-7.83,7.12-3.15,1.89-6.76,3.3-10.84,4.24-4.08.94-8.59,1.41-13.52,1.41ZM952.82,721.3v-74.37c0-8.59-2.18-15.26-6.55-20.01s-10.55-7.12-18.56-7.12c-4.79,0-9.53.79-14.22,2.37-4.68,1.58-8.85,3.88-12.5,6.89l-13.63-9.83c4.22-5.35,9.78-9.51,16.68-12.49,6.9-2.98,14.57-4.47,23.01-4.47,13.95,0,24.75,3.81,32.4,11.42,7.65,7.61,11.48,18.35,11.48,32.21v75.39h-18.13Z"/>
  <path class="st1" d="M974.73,499.83c0,6.06-2.73,11.26-19.25,13.54H38.52c-16.52-2.28-19.25-7.48-19.25-13.54,0,8.16-6.62,14.78-14.78,14.78,8.16,0,14.78,6.62,14.78,14.78,0-6.06,2.73-11.26,19.25-13.54h916.96c16.52,2.28,19.25,7.48,19.25,13.54,0-8.16,6.62-14.78,14.78-14.78-8.16,0-14.78-6.62-14.78-14.78Z"/>
  <path class="st0" d="M756.24,195.87c-20.31,2.92-48.02,5.65-83.16-14.63-10.92-6.3-19.37-12.61-26.25-19.08-11.2,4.21-23.95,7.58-38.7,9.59-82.72,11.25-103.87-25.13-180.97-51.59,9.8,46.17,42.5,98.63,108.02,139.88,59.29,37.33,121.07,36.29,169.35,20.71,23.83-27.23,40.97-57.11,51.71-84.88Z"/>
</svg>