<?xml version="1.0" encoding="UTF-8"?>
<svg id="Layer_1" xmlns="http://www.w3.org/2000/svg" version="1.1" viewBox="0 0 1313 491">
  <!-- Generator: Adobe Illustrator 29.0.0, SVG Export Plug-In . SVG Version: 2.1.0 Build 186)  -->
  <defs>
    <style>
      .st0 {
        fill: #fff;
      }
    </style>
  </defs>
  <g>
    <rect class="st0" x="1" y="46.77" width="149.9" height="411.07"/>
    <rect class="st0" x="161.01" y="-.13" width="149.9" height="457.97"/>
    <rect class="st0" x="321.03" y="105.63" width="149.9" height="352.22"/>
  </g>
  <g>
    <path class="st0" d="M605.7,356.91c0,.78-.06,1.5-.18,2.15-.12.66-.28,1.21-.49,1.66-.21.45-.48.79-.81,1.03-.33.24-.67.36-1.03.36-.72,0-1.9-.6-3.54-1.79-1.65-1.19-3.84-2.5-6.59-3.9-2.75-1.4-6.08-2.7-10-3.9-3.92-1.2-8.56-1.79-13.94-1.79-6.87,0-13,1.27-18.38,3.81-5.38,2.54-9.92,6.02-13.63,10.44-3.71,4.42-6.53,9.67-8.47,15.74-1.94,6.07-2.91,12.6-2.91,19.59,0,7.83,1.1,14.81,3.32,20.94,2.21,6.13,5.27,11.3,9.19,15.51,3.91,4.21,8.58,7.43,13.99,9.64,5.41,2.21,11.31,3.32,17.71,3.32,4.12,0,8.31-.51,12.55-1.52,4.24-1.02,8.22-2.57,11.92-4.66v-37.57h-29.59c-.96,0-1.67-.42-2.15-1.25-.48-.84-.72-2.03-.72-3.59,0-.84.06-1.57.18-2.2.12-.63.3-1.13.54-1.52.24-.39.54-.69.9-.9.36-.21.78-.31,1.26-.31h35.5c.54,0,1.11.09,1.7.27.6.18,1.15.48,1.66.9.51.42.91,1,1.21,1.75.3.75.45,1.66.45,2.73v43.12c0,1.43-.22,2.66-.67,3.68-.45,1.02-1.48,1.99-3.09,2.91-1.61.93-3.77,1.94-6.46,3.05-2.69,1.11-5.47,2.03-8.34,2.78-2.87.75-5.75,1.31-8.65,1.7-2.9.39-5.75.58-8.56.58-8.79,0-16.63-1.42-23.54-4.26-6.9-2.84-12.73-6.84-17.48-12.01-4.75-5.17-8.38-11.33-10.89-18.47-2.51-7.14-3.77-15.02-3.77-23.62s1.36-17.26,4.08-24.7c2.72-7.44,6.54-13.79,11.48-19.05,4.93-5.26,10.83-9.34,17.71-12.24,6.87-2.9,14.46-4.35,22.77-4.35,4.18,0,8.14.39,11.88,1.17,3.74.78,7.1,1.72,10.09,2.82,2.99,1.11,5.53,2.3,7.62,3.59,2.09,1.29,3.51,2.3,4.26,3.05.75.75,1.25,1.48,1.52,2.2.27.72.4,1.76.4,3.14Z"/>
    <path class="st0" d="M680.03,379.51c0,.9-.03,1.66-.09,2.29-.06.63-.17,1.14-.31,1.52-.15.39-.33.69-.54.9s-.49.31-.85.31c-.54,0-1.17-.13-1.88-.4-.72-.27-1.55-.55-2.51-.85-.96-.3-2-.58-3.14-.85-1.14-.27-2.39-.4-3.77-.4-1.61,0-3.2.34-4.75,1.03-1.55.69-3.18,1.79-4.89,3.32-1.7,1.52-3.5,3.54-5.38,6.05s-3.96,5.59-6.23,9.23v54.87c0,.36-.09.69-.27.99-.18.3-.46.54-.85.72-.39.18-.93.33-1.61.45-.69.12-1.57.18-2.64.18-1.02,0-1.87-.06-2.56-.18-.69-.12-1.24-.27-1.66-.45-.42-.18-.7-.42-.85-.72-.15-.3-.22-.63-.22-.99v-81.14c0-.36.07-.69.22-.99.15-.3.43-.55.85-.76.42-.21.94-.36,1.57-.45.63-.09,1.45-.13,2.46-.13s1.85.04,2.51.13c.66.09,1.17.24,1.52.45.36.21.61.46.76.76.15.3.22.63.22.99v12.82c2.33-3.41,4.48-6.16,6.46-8.25,1.97-2.09,3.86-3.72,5.65-4.89,1.79-1.17,3.54-1.96,5.25-2.38,1.7-.42,3.45-.63,5.25-.63.78,0,1.67.04,2.69.13,1.02.09,2.11.25,3.27.49,1.17.24,2.21.52,3.14.85.93.33,1.57.63,1.93.9.36.27.6.51.72.72.12.21.22.48.31.81.09.33.15.78.18,1.34.03.57.04,1.3.04,2.2Z"/>
    <path class="st0" d="M763.77,456.52c0,.36-.08.69-.22.99-.15.3-.43.54-.85.72-.42.18-.96.33-1.61.45-.66.12-1.47.18-2.42.18-1.08,0-1.94-.06-2.6-.18-.66-.12-1.17-.27-1.52-.45-.36-.18-.61-.42-.76-.72-.15-.3-.22-.63-.22-.99v-11.48c-4.66,5.2-9.22,8.97-13.67,11.3-4.45,2.33-8.89,3.5-13.31,3.5-5.32,0-9.8-.9-13.45-2.69-3.65-1.79-6.59-4.23-8.83-7.31-2.24-3.08-3.86-6.65-4.84-10.71-.99-4.06-1.48-8.97-1.48-14.7v-49.04c0-.36.07-.69.22-.99.15-.3.43-.55.85-.76.42-.21.97-.36,1.66-.45.69-.09,1.54-.13,2.56-.13,1.08,0,1.96.04,2.64.13.69.09,1.22.24,1.61.45.39.21.67.46.85.76.18.3.27.63.27.99v48.06c0,5.02.39,9.12,1.17,12.28.78,3.17,1.94,5.87,3.5,8.11,1.55,2.24,3.54,3.98,5.96,5.2,2.42,1.23,5.25,1.84,8.47,1.84,4.12,0,8.23-1.46,12.33-4.39,4.09-2.93,8.44-7.23,13.04-12.91v-58.19c0-.36.07-.69.22-.99.15-.3.43-.55.85-.76.42-.21.97-.36,1.66-.45.69-.09,1.57-.13,2.64-.13,1.02,0,1.87.04,2.56.13.69.09,1.22.24,1.61.45.39.21.67.46.85.76.18.3.27.63.27.99v81.14Z"/>
    <path class="st0" d="M864.55,414.74c0,6.93-.76,13.18-2.29,18.74-1.52,5.56-3.77,10.28-6.72,14.17-2.96,3.89-6.62,6.89-10.98,9.01-4.36,2.12-9.36,3.18-14.97,3.18-2.39,0-4.63-.25-6.72-.76-2.09-.51-4.14-1.3-6.14-2.38-2-1.08-4-2.42-6.01-4.03-2-1.61-4.11-3.56-6.32-5.83v41.87c0,.36-.09.69-.27.99-.18.3-.46.55-.85.76-.39.21-.93.36-1.61.45-.69.09-1.57.13-2.64.13-1.02,0-1.87-.04-2.56-.13-.69-.09-1.24-.24-1.66-.45-.42-.21-.7-.46-.85-.76-.15-.3-.22-.63-.22-.99v-113.33c0-.42.07-.78.22-1.08.15-.3.42-.54.81-.72.39-.18.9-.31,1.52-.4.63-.09,1.39-.13,2.29-.13s1.64.04,2.24.13c.6.09,1.11.22,1.52.4.42.18.72.42.9.72.18.3.27.66.27,1.08v11.75c2.51-2.57,4.9-4.8,7.17-6.68,2.27-1.88,4.54-3.45,6.81-4.71,2.27-1.25,4.6-2.18,6.99-2.78,2.39-.6,4.93-.9,7.62-.9,5.86,0,10.85,1.12,14.97,3.36s7.49,5.31,10.09,9.19c2.6,3.89,4.48,8.41,5.65,13.58,1.17,5.17,1.75,10.68,1.75,16.54ZM853.34,416.45c0-4.54-.36-8.92-1.08-13.13-.72-4.21-1.93-7.96-3.63-11.25-1.7-3.29-3.98-5.92-6.81-7.89-2.84-1.97-6.41-2.96-10.71-2.96-2.15,0-4.26.3-6.32.9-2.06.6-4.17,1.58-6.32,2.96-2.15,1.38-4.39,3.15-6.72,5.33-2.33,2.18-4.78,4.89-7.35,8.11v35.33c4.48,5.44,8.77,9.61,12.87,12.51,4.09,2.9,8.38,4.35,12.87,4.35,4.12,0,7.67-1,10.62-3,2.96-2,5.36-4.63,7.22-7.89,1.85-3.26,3.21-6.93,4.08-11.03.87-4.09,1.3-8.2,1.3-12.33Z"/>
    <path class="st0" d="M960.93,415.1c0,6.46-.84,12.4-2.51,17.84-1.67,5.44-4.17,10.16-7.49,14.17-3.32,4-7.46,7.13-12.42,9.37-4.96,2.24-10.73,3.36-17.3,3.36s-11.88-1-16.63-3-8.73-4.87-11.92-8.61c-3.2-3.73-5.59-8.26-7.17-13.58-1.58-5.32-2.38-11.33-2.38-18.02s.82-12.4,2.47-17.84c1.64-5.44,4.12-10.14,7.44-14.12,3.32-3.97,7.46-7.07,12.42-9.28,4.96-2.21,10.76-3.32,17.39-3.32s11.88.99,16.63,2.96,8.71,4.83,11.88,8.56c3.17,3.74,5.56,8.26,7.17,13.58,1.61,5.32,2.42,11.3,2.42,17.93ZM949.63,416.09c0-4.6-.45-9-1.35-13.18-.9-4.18-2.39-7.88-4.48-11.07-2.09-3.2-4.9-5.74-8.43-7.62-3.53-1.88-7.92-2.82-13.18-2.82-4.84,0-9.03.87-12.55,2.6-3.53,1.73-6.41,4.14-8.65,7.22-2.24,3.08-3.9,6.71-4.98,10.89-1.08,4.18-1.61,8.7-1.61,13.54s.45,9.1,1.34,13.31,2.39,7.91,4.48,11.07c2.09,3.17,4.9,5.68,8.43,7.53,3.53,1.85,7.92,2.78,13.18,2.78,4.84,0,9.02-.87,12.55-2.6,3.53-1.73,6.41-4.12,8.65-7.17,2.24-3.05,3.9-6.66,4.98-10.85,1.08-4.18,1.61-8.73,1.61-13.63Z"/>
    <path class="st0" d="M1119.08,449.53c.72,2.15,1.17,3.85,1.34,5.11.18,1.25-.06,2.2-.72,2.82-.66.63-1.82,1.02-3.5,1.17-1.67.15-3.98.22-6.9.22s-5.42-.04-7.13-.13-3-.27-3.9-.54c-.9-.27-1.52-.64-1.88-1.12-.36-.48-.66-1.11-.9-1.88l-7.8-23.31h-43.57l-7.35,22.68c-.24.84-.55,1.54-.94,2.11-.39.57-1.02,1.02-1.88,1.34-.87.33-2.09.55-3.68.67-1.58.12-3.66.18-6.23.18-2.75,0-4.9-.09-6.46-.27-1.55-.18-2.63-.61-3.23-1.3-.6-.69-.81-1.66-.63-2.91.18-1.25.63-2.93,1.34-5.02l35.77-102.93c.36-1.02.78-1.84,1.26-2.47.48-.63,1.24-1.11,2.29-1.43,1.04-.33,2.5-.54,4.35-.63,1.85-.09,4.3-.13,7.35-.13,3.53,0,6.33.04,8.43.13,2.09.09,3.72.3,4.89.63,1.17.33,2,.82,2.51,1.48.51.66.94,1.55,1.3,2.69l35.86,102.84ZM1065.83,364.45h-.09l-16.41,49.31h32.9l-16.41-49.31Z"/>
    <path class="st0" d="M1220.04,454.82c0,.66-.17,1.24-.49,1.75-.33.51-.96.93-1.88,1.25-.93.33-2.2.58-3.81.76-1.61.18-3.65.27-6.1.27-3.89,0-6.68-.15-8.38-.45-1.7-.3-2.93-.75-3.68-1.34-.75-.6-1.33-1.31-1.75-2.15l-35.06-55.05v55.05c0,.66-.18,1.23-.54,1.7s-.99.88-1.88,1.21c-.9.33-2.09.58-3.59.76-1.5.18-3.41.27-5.74.27s-4.17-.09-5.69-.27c-1.52-.18-2.73-.43-3.63-.76-.9-.33-1.54-.73-1.93-1.21-.39-.48-.58-1.05-.58-1.7v-109.29c0-.66.19-1.22.58-1.7.39-.48,1.03-.87,1.93-1.17.9-.3,2.11-.54,3.63-.72s3.42-.27,5.69-.27,4.24.09,5.74.27c1.49.18,2.69.42,3.59.72.9.3,1.52.69,1.88,1.17.36.48.54,1.05.54,1.7v49.4l33.98-49.31c.42-.78.93-1.42,1.52-1.93.6-.51,1.37-.91,2.33-1.21.96-.3,2.18-.51,3.68-.63,1.49-.12,3.41-.18,5.74-.18s4.36.09,5.92.27c1.55.18,2.79.43,3.72.76.93.33,1.57.73,1.93,1.21.36.48.54,1.02.54,1.61,0,1.02-.27,2.06-.81,3.14-.54,1.08-1.56,2.78-3.05,5.11l-31.83,41.69,34.7,52.45c1.31,2.45,2.11,4.08,2.38,4.89.27.81.4,1.45.4,1.93Z"/>
    <path class="st0" d="M1312.92,351.98c0,1.73-.08,3.21-.22,4.44-.15,1.23-.37,2.21-.67,2.96-.3.75-.67,1.3-1.12,1.66-.45.36-.94.54-1.48.54h-29.05v93.51c0,.6-.19,1.14-.58,1.61-.39.48-1.03.87-1.93,1.17-.9.3-2.11.54-3.63.72-1.52.18-3.42.27-5.69.27s-4.17-.09-5.69-.27c-1.52-.18-2.74-.42-3.63-.72-.9-.3-1.54-.69-1.93-1.17-.39-.48-.58-1.02-.58-1.61v-93.51h-29.05c-.6,0-1.11-.18-1.52-.54-.42-.36-.78-.91-1.08-1.66-.3-.75-.52-1.73-.67-2.96-.15-1.22-.22-2.7-.22-4.44s.07-3.32.22-4.57c.15-1.26.37-2.26.67-3,.3-.75.66-1.28,1.08-1.61.42-.33.93-.49,1.52-.49h81.77c.54,0,1.03.17,1.48.49.45.33.82.87,1.12,1.61.3.75.52,1.75.67,3,.15,1.25.22,2.78.22,4.57Z"/>
  </g>
</svg>